<?xml version="1.0" encoding="UTF-8" standalone="no"?>
<!DOCTYPE svg PUBLIC "-//W3C//DTD SVG 1.1//EN"
 "http://www.w3.org/Graphics/SVG/1.1/DTD/svg11.dtd">
<!-- Generated by graphviz version 2.26.3 (20100126.1600)
 -->
<!-- Title: models_diagram Pages: 1 -->
<svg width="2383pt" height="378pt"
 viewBox="0.00 0.00 2383.00 378.00" xmlns="http://www.w3.org/2000/svg" xmlns:xlink="http://www.w3.org/1999/xlink">
<g id="graph1" class="graph" transform="scale(1 1) rotate(0) translate(4 374)">
<title>models_diagram</title>
<polygon fill="white" stroke="white" points="-4,5 -4,-374 2380,-374 2380,5 -4,5"/>
<!-- _diagram_info -->
<g id="node1" class="node"><title>_diagram_info</title>
<text text-anchor="start" x="8" y="-353.8" font-family="Times Roman,serif" font-size="13.00">Models diagram</text>
<text text-anchor="start" x="8" y="-336.8" font-family="Times Roman,serif" font-size="13.00">Date: Mar 09 2013 &#45; 21:27</text>
<text text-anchor="start" x="8" y="-319.8" font-family="Times Roman,serif" font-size="13.00">Migration version: 20121010001024</text>
<text text-anchor="start" x="8" y="-302.8" font-family="Times Roman,serif" font-size="13.00">Generated by RailRoady 1.1.0</text>
<text text-anchor="start" x="8" y="-285.8" font-family="Times Roman,serif" font-size="13.00">http://railroady.prestonlee.com</text>
</g>
<!-- Viajero -->
<g id="node2" class="node"><title>Viajero</title>
<ellipse fill="none" stroke="black" cx="476" cy="-19" rx="45.9619" ry="18.3848"/>
<text text-anchor="middle" x="476" y="-15.4" font-family="Times Roman,serif" font-size="14.00">Viajero</text>
</g>
<!-- Programa -->
<g id="node3" class="node"><title>Programa</title>
<ellipse fill="none" stroke="black" cx="500" cy="-203" rx="58.1882" ry="18.3848"/>
<text text-anchor="middle" x="500" y="-199.4" font-family="Times Roman,serif" font-size="14.00">Programa</text>
</g>
<!-- Reserva -->
<g id="node20" class="node"><title>Reserva</title>
<ellipse fill="none" stroke="black" cx="823" cy="-111" rx="50.2046" ry="18.3848"/>
<text text-anchor="middle" x="823" y="-107.4" font-family="Times Roman,serif" font-size="14.00">Reserva</text>
</g>
<!-- Programa&#45;&gt;Reserva -->
<g id="edge4" class="edge"><title>Programa&#45;&gt;Reserva</title>
<path fill="none" stroke="#d9f0a2" d="M540.147,-184.37C567.696,-172.302 605.392,-157.179 640,-148 693.828,-133.724 709.751,-142.579 764,-130 768.128,-129.043 772.381,-127.931 776.625,-126.734"/>
<ellipse fill="none" stroke="#d9f0a2" cx="536.315" cy="-186.066" rx="4.00002" ry="4.00002"/>
<polygon fill="#d9f0a2" stroke="#d9f0a2" points="776.856,-126.665 787.723,-128.134 781.649,-125.243 786.443,-123.82 786.443,-123.82 786.443,-123.82 781.649,-125.243 785.162,-119.506 776.856,-126.665 776.856,-126.665"/>
</g>
<!-- Programa::Version -->
<g id="node25" class="node"><title>Programa::Version</title>
<ellipse fill="none" stroke="black" cx="414" cy="-111" rx="101.116" ry="18.3848"/>
<text text-anchor="middle" x="414" y="-107.4" font-family="Times Roman,serif" font-size="14.00">Programa::Version</text>
</g>
<!-- Programa&#45;&gt;Programa::Version -->
<g id="edge2" class="edge"><title>Programa&#45;&gt;Programa::Version</title>
<path fill="none" stroke="#db4255" d="M477.866,-179.321C465.696,-166.302 450.582,-150.135 438.113,-136.796"/>
<ellipse fill="none" stroke="#db4255" cx="480.687" cy="-182.339" rx="4.00002" ry="4.00002"/>
<polygon fill="#db4255" stroke="#db4255" points="437.948,-136.619 434.407,-126.241 434.534,-132.966 431.119,-129.314 431.119,-129.314 431.119,-129.314 434.534,-132.966 427.832,-132.387 437.948,-136.619 437.948,-136.619"/>
<text text-anchor="middle" x="494" y="-153.4" font-family="Times Roman,serif" font-size="14.00">versions</text>
</g>
<!-- Entidad -->
<g id="node4" class="node"><title>Entidad</title>
<ellipse fill="none" stroke="black" cx="1139" cy="-323" rx="48.7904" ry="18.3848"/>
<text text-anchor="middle" x="1139" y="-319.4" font-family="Times Roman,serif" font-size="14.00">Entidad</text>
</g>
<!-- Cuenta -->
<g id="node7" class="node"><title>Cuenta</title>
<ellipse fill="none" stroke="black" cx="1473" cy="-111" rx="46.8775" ry="18.3848"/>
<text text-anchor="middle" x="1473" y="-107.4" font-family="Times Roman,serif" font-size="14.00">Cuenta</text>
</g>
<!-- Entidad&#45;&gt;Cuenta -->
<g id="edge8" class="edge"><title>Entidad&#45;&gt;Cuenta</title>
<path fill="none" stroke="#3f4fee" d="M1191.54,-313.332C1233.56,-303.901 1292.72,-286.694 1338,-258 1388.51,-225.991 1432.27,-170.334 1455.43,-137.459"/>
<ellipse fill="none" stroke="#3f4fee" cx="1187.55" cy="-314.205" rx="4.00001" ry="4.00001"/>
<polygon fill="#3f4fee" stroke="#3f4fee" points="1455.44,-137.445 1464.83,-131.787 1458.28,-133.335 1461.13,-129.225 1461.13,-129.225 1461.13,-129.225 1458.28,-133.335 1457.43,-126.662 1455.44,-137.445 1455.44,-137.445"/>
</g>
<!-- Pago -->
<g id="node11" class="node"><title>Pago</title>
<ellipse fill="none" stroke="black" cx="1368" cy="-111" rx="34.8574" ry="18.3848"/>
<text text-anchor="middle" x="1368" y="-107.4" font-family="Times Roman,serif" font-size="14.00">Pago</text>
</g>
<!-- Entidad&#45;&gt;Pago -->
<g id="edge12" class="edge"><title>Entidad&#45;&gt;Pago</title>
<path fill="none" stroke="#9f15f2" d="M1190.67,-312.415C1239.37,-299.615 1310.47,-273.102 1349,-222 1366.84,-198.338 1370.22,-163.784 1370,-139.531"/>
<ellipse fill="none" stroke="#9f15f2" cx="1186.63" cy="-313.441" rx="4.00001" ry="4.00001"/>
<polygon fill="#9f15f2" stroke="#9f15f2" points="1370,-139.505 1374.2,-129.376 1369.85,-134.507 1369.7,-129.509 1369.7,-129.509 1369.7,-129.509 1369.85,-134.507 1365.21,-129.642 1370,-139.505 1370,-139.505"/>
</g>
<!-- Agency -->
<g id="node15" class="node"><title>Agency</title>
<ellipse fill="none" stroke="black" cx="921" cy="-203" rx="46.8775" ry="18.3848"/>
<text text-anchor="middle" x="921" y="-199.4" font-family="Times Roman,serif" font-size="14.00">Agency</text>
</g>
<!-- Entidad&#45;&gt;Agency -->
<g id="edge44" class="edge"><title>Entidad&#45;&gt;Agency</title>
<path fill="none" stroke="black" d="M1110.95,-307.558C1068.97,-284.453 990.311,-241.153 948.602,-218.194"/>
</g>
<!-- Operadora -->
<g id="node18" class="node"><title>Operadora</title>
<ellipse fill="none" stroke="black" cx="793" cy="-203" rx="62.9325" ry="18.3848"/>
<text text-anchor="middle" x="793" y="-199.4" font-family="Times Roman,serif" font-size="14.00">Operadora</text>
</g>
<!-- Entidad&#45;&gt;Operadora -->
<g id="edge52" class="edge"><title>Entidad&#45;&gt;Operadora</title>
<path fill="none" stroke="black" d="M1102.63,-310.385C1037.65,-287.849 902.072,-240.829 833.939,-217.199"/>
</g>
<!-- Movimiento -->
<g id="node19" class="node"><title>Movimiento</title>
<ellipse fill="none" stroke="black" cx="1254" cy="-203" rx="68.0887" ry="18.3848"/>
<text text-anchor="middle" x="1254" y="-199.4" font-family="Times Roman,serif" font-size="14.00">Movimiento</text>
</g>
<!-- Entidad&#45;&gt;Movimiento -->
<g id="edge10" class="edge"><title>Entidad&#45;&gt;Movimiento</title>
<path fill="none" stroke="#780acc" d="M1161.33,-299.702C1180.89,-279.288 1209.27,-249.671 1229.47,-228.6"/>
<ellipse fill="none" stroke="#780acc" cx="1158.49" cy="-302.663" rx="4.00002" ry="4.00002"/>
<polygon fill="#780acc" stroke="#780acc" points="1229.58,-228.477 1239.75,-224.371 1233.04,-224.867 1236.5,-221.257 1236.5,-221.257 1236.5,-221.257 1233.04,-224.867 1233.25,-218.143 1229.58,-228.477 1229.58,-228.477"/>
</g>
<!-- Entidad::Version -->
<g id="node28" class="node"><title>Entidad::Version</title>
<ellipse fill="none" stroke="black" cx="1077" cy="-203" rx="91.2168" ry="18.3848"/>
<text text-anchor="middle" x="1077" y="-199.4" font-family="Times Roman,serif" font-size="14.00">Entidad::Version</text>
</g>
<!-- Entidad&#45;&gt;Entidad::Version -->
<g id="edge6" class="edge"><title>Entidad&#45;&gt;Entidad::Version</title>
<path fill="none" stroke="#798876" d="M1125.82,-297.496C1115.71,-277.915 1101.75,-250.91 1091.35,-230.782"/>
<ellipse fill="none" stroke="#798876" cx="1127.75" cy="-301.221" rx="4.00002" ry="4.00002"/>
<polygon fill="#798876" stroke="#798876" points="1091.3,-230.678 1090.71,-219.728 1089,-226.235 1086.71,-221.793 1086.71,-221.793 1086.71,-221.793 1089,-226.235 1082.71,-223.859 1091.3,-230.678 1091.3,-230.678"/>
<text text-anchor="middle" x="1134" y="-245.4" font-family="Times Roman,serif" font-size="14.00">versions</text>
</g>
<!-- Tdoc -->
<g id="node5" class="node"><title>Tdoc</title>
<ellipse fill="none" stroke="black" cx="302" cy="-323" rx="34.1461" ry="18.3848"/>
<text text-anchor="middle" x="302" y="-319.4" font-family="Times Roman,serif" font-size="14.00">Tdoc</text>
</g>
<!-- Pasajero -->
<g id="node8" class="node"><title>Pasajero</title>
<ellipse fill="none" stroke="black" cx="200" cy="-203" rx="51.8276" ry="18.3848"/>
<text text-anchor="middle" x="200" y="-199.4" font-family="Times Roman,serif" font-size="14.00">Pasajero</text>
</g>
<!-- Tdoc&#45;&gt;Pasajero -->
<g id="edge16" class="edge"><title>Tdoc&#45;&gt;Pasajero</title>
<path fill="none" stroke="#62f7db" d="M282.372,-299.909C265.035,-279.512 239.788,-249.809 221.822,-228.672"/>
<ellipse fill="none" stroke="#62f7db" cx="285.012" cy="-303.014" rx="4.00002" ry="4.00002"/>
<polygon fill="#62f7db" stroke="#62f7db" points="221.8,-228.648 218.753,-218.114 218.562,-224.838 215.324,-221.028 215.324,-221.028 215.324,-221.028 218.562,-224.838 211.895,-223.943 221.8,-228.648 221.8,-228.648"/>
</g>
<!-- Tdoc::Version -->
<g id="node33" class="node"><title>Tdoc::Version</title>
<ellipse fill="none" stroke="black" cx="347" cy="-203" rx="77.0746" ry="18.3848"/>
<text text-anchor="middle" x="347" y="-199.4" font-family="Times Roman,serif" font-size="14.00">Tdoc::Version</text>
</g>
<!-- Tdoc&#45;&gt;Tdoc::Version -->
<g id="edge14" class="edge"><title>Tdoc&#45;&gt;Tdoc::Version</title>
<path fill="none" stroke="#b3de0f" d="M311.675,-297.2C318.947,-277.807 328.904,-251.257 336.393,-231.286"/>
<ellipse fill="none" stroke="#b3de0f" cx="310.239" cy="-301.029" rx="4.00001" ry="4.00001"/>
<polygon fill="#b3de0f" stroke="#b3de0f" points="336.441,-231.157 344.166,-223.373 338.197,-226.475 339.953,-221.793 339.953,-221.793 339.953,-221.793 338.197,-226.475 335.739,-220.213 336.441,-231.157 336.441,-231.157"/>
<text text-anchor="middle" x="362" y="-245.4" font-family="Times Roman,serif" font-size="14.00">versions</text>
</g>
<!-- Directo -->
<g id="node6" class="node"><title>Directo</title>
<ellipse fill="none" stroke="black" cx="1195" cy="-111" rx="46.8775" ry="18.3848"/>
<text text-anchor="middle" x="1195" y="-107.4" font-family="Times Roman,serif" font-size="14.00">Directo</text>
</g>
<!-- Pasajero&#45;&gt;Viajero -->
<g id="edge22" class="edge"><title>Pasajero&#45;&gt;Viajero</title>
<path fill="none" stroke="#8e7958" d="M229.795,-181.365C235.728,-176.562 241.743,-171.313 247,-166 276.2,-136.49 271.151,-117.385 304,-92 340.953,-63.4438 390.74,-43.9191 427.239,-32.2989"/>
<ellipse fill="none" stroke="#8e7958" cx="226.572" cy="-183.906" rx="4.00002" ry="4.00002"/>
<polygon fill="#8e7958" stroke="#8e7958" points="427.606,-32.1854 438.489,-33.5291 432.383,-30.7077 437.159,-29.2301 437.159,-29.2301 437.159,-29.2301 432.383,-30.7077 435.829,-24.9311 427.606,-32.1854 427.606,-32.1854"/>
</g>
<!-- Pasajero&#45;&gt;Reserva -->
<g id="edge24" class="edge"><title>Pasajero&#45;&gt;Reserva</title>
<path fill="none" stroke="#46691b" d="M246.769,-187.266C251.539,-186.013 256.342,-184.89 261,-184 364.758,-164.166 393.448,-181.102 498,-166 535.789,-160.542 544.276,-153.888 582,-148 662.311,-135.465 684.42,-146.552 764,-130 768.385,-129.088 772.905,-127.97 777.398,-126.738"/>
<polygon fill="#46691b" stroke="#46691b" points="246.709,-187.283 235.864,-185.655 241.895,-188.635 237.081,-189.987 237.081,-189.987 237.081,-189.987 241.895,-188.635 238.298,-194.32 246.709,-187.283 246.709,-187.283"/>
<polygon fill="#46691b" stroke="#46691b" points="777.534,-126.698 788.395,-128.211 782.333,-125.295 787.132,-123.891 787.132,-123.891 787.132,-123.891 782.333,-125.295 785.869,-119.572 777.534,-126.698 777.534,-126.698"/>
</g>
<!-- Pasajero::Version -->
<g id="node37" class="node"><title>Pasajero::Version</title>
<ellipse fill="none" stroke="black" cx="162" cy="-111" rx="94.7523" ry="18.3848"/>
<text text-anchor="middle" x="162" y="-107.4" font-family="Times Roman,serif" font-size="14.00">Pasajero::Version</text>
</g>
<!-- Pasajero&#45;&gt;Pasajero::Version -->
<g id="edge20" class="edge"><title>Pasajero&#45;&gt;Pasajero::Version</title>
<path fill="none" stroke="#2e29de" d="M189.204,-176.863C184.338,-165.081 178.582,-151.147 173.622,-139.137"/>
<ellipse fill="none" stroke="#2e29de" cx="190.783" cy="-180.685" rx="4.00002" ry="4.00002"/>
<polygon fill="#2e29de" stroke="#2e29de" points="173.496,-138.833 173.838,-127.872 171.587,-134.211 169.678,-129.59 169.678,-129.59 169.678,-129.59 171.587,-134.211 165.519,-131.308 173.496,-138.833 173.496,-138.833"/>
<text text-anchor="middle" x="214" y="-153.4" font-family="Times Roman,serif" font-size="14.00">versions</text>
</g>
<!-- Moneda -->
<g id="node9" class="node"><title>Moneda</title>
<ellipse fill="none" stroke="black" cx="1634" cy="-323" rx="50.2046" ry="18.3848"/>
<text text-anchor="middle" x="1634" y="-319.4" font-family="Times Roman,serif" font-size="14.00">Moneda</text>
</g>
<!-- Cotizacion -->
<g id="node16" class="node"><title>Cotizacion</title>
<ellipse fill="none" stroke="black" cx="1807" cy="-203" rx="62.9325" ry="18.3848"/>
<text text-anchor="middle" x="1807" y="-199.4" font-family="Times Roman,serif" font-size="14.00">Cotizacion</text>
</g>
<!-- Moneda&#45;&gt;Cotizacion -->
<g id="edge30" class="edge"><title>Moneda&#45;&gt;Cotizacion</title>
<path fill="none" stroke="#fdbdb1" d="M1664.53,-301.825C1695.15,-280.584 1742.17,-247.966 1773.73,-226.076"/>
<ellipse fill="none" stroke="#fdbdb1" cx="1660.98" cy="-304.286" rx="4.00002" ry="4.00002"/>
<polygon fill="#fdbdb1" stroke="#fdbdb1" points="1773.98,-225.904 1784.76,-223.902 1778.09,-223.054 1782.2,-220.205 1782.2,-220.205 1782.2,-220.205 1778.09,-223.054 1779.63,-216.507 1773.98,-225.904 1773.98,-225.904"/>
</g>
<!-- Monto -->
<g id="node21" class="node"><title>Monto</title>
<ellipse fill="none" stroke="black" cx="1482" cy="-203" rx="41.9273" ry="18.3848"/>
<text text-anchor="middle" x="1482" y="-199.4" font-family="Times Roman,serif" font-size="14.00">Monto</text>
</g>
<!-- Moneda&#45;&gt;Monto -->
<g id="edge28" class="edge"><title>Moneda&#45;&gt;Monto</title>
<path fill="none" stroke="#057960" d="M1606.08,-300.958C1579.05,-279.616 1538.24,-247.402 1510.89,-225.805"/>
<ellipse fill="none" stroke="#057960" cx="1609.4" cy="-303.583" rx="4.00002" ry="4.00002"/>
<polygon fill="#057960" stroke="#057960" points="1510.71,-225.664 1505.65,-215.935 1506.78,-222.565 1502.86,-219.467 1502.86,-219.467 1502.86,-219.467 1506.78,-222.565 1500.07,-222.999 1510.71,-225.664 1510.71,-225.664"/>
</g>
<!-- Moneda::Version -->
<g id="node41" class="node"><title>Moneda::Version</title>
<ellipse fill="none" stroke="black" cx="1634" cy="-203" rx="92.1303" ry="18.3848"/>
<text text-anchor="middle" x="1634" y="-199.4" font-family="Times Roman,serif" font-size="14.00">Moneda::Version</text>
</g>
<!-- Moneda&#45;&gt;Moneda::Version -->
<g id="edge26" class="edge"><title>Moneda&#45;&gt;Moneda::Version</title>
<path fill="none" stroke="#e18a76" d="M1634,-296.053C1634,-276.923 1634,-251.278 1634,-231.755"/>
<ellipse fill="none" stroke="#e18a76" cx="1634" cy="-300.25" rx="4" ry="4"/>
<polygon fill="#e18a76" stroke="#e18a76" points="1634,-231.618 1638.5,-221.618 1634,-226.618 1634,-221.618 1634,-221.618 1634,-221.618 1634,-226.618 1629.5,-221.618 1634,-231.618 1634,-231.618"/>
<text text-anchor="middle" x="1663" y="-245.4" font-family="Times Roman,serif" font-size="14.00">versions</text>
</g>
<!-- Tdeposito -->
<g id="node10" class="node"><title>Tdeposito</title>
<ellipse fill="none" stroke="black" cx="1989" cy="-323" rx="58.1882" ry="18.3848"/>
<text text-anchor="middle" x="1989" y="-319.4" font-family="Times Roman,serif" font-size="14.00">Tdeposito</text>
</g>
<!-- Tdeposito::Version -->
<g id="node45" class="node"><title>Tdeposito::Version</title>
<ellipse fill="none" stroke="black" cx="1989" cy="-203" rx="101.116" ry="18.3848"/>
<text text-anchor="middle" x="1989" y="-199.4" font-family="Times Roman,serif" font-size="14.00">Tdeposito::Version</text>
</g>
<!-- Tdeposito&#45;&gt;Tdeposito::Version -->
<g id="edge32" class="edge"><title>Tdeposito&#45;&gt;Tdeposito::Version</title>
<path fill="none" stroke="#3f1ae1" d="M1989,-296.053C1989,-276.923 1989,-251.278 1989,-231.755"/>
<ellipse fill="none" stroke="#3f1ae1" cx="1989" cy="-300.25" rx="4" ry="4"/>
<polygon fill="#3f1ae1" stroke="#3f1ae1" points="1989,-231.618 1993.5,-221.618 1989,-226.618 1989,-221.618 1989,-221.618 1989,-221.618 1989,-226.618 1984.5,-221.618 1989,-231.618 1989,-231.618"/>
<text text-anchor="middle" x="2018" y="-245.4" font-family="Times Roman,serif" font-size="14.00">versions</text>
</g>
<!-- Localidad -->
<g id="node12" class="node"><title>Localidad</title>
<ellipse fill="none" stroke="black" cx="2133" cy="-323" rx="56.0679" ry="18.3848"/>
<text text-anchor="middle" x="2133" y="-319.4" font-family="Times Roman,serif" font-size="14.00">Localidad</text>
</g>
<!-- Deposito -->
<g id="node13" class="node"><title>Deposito</title>
<ellipse fill="none" stroke="black" cx="1128" cy="-19" rx="53.9477" ry="18.3848"/>
<text text-anchor="middle" x="1128" y="-15.4" font-family="Times Roman,serif" font-size="14.00">Deposito</text>
</g>
<!-- User -->
<g id="node14" class="node"><title>User</title>
<ellipse fill="none" stroke="black" cx="2263" cy="-323" rx="33.9411" ry="18.3848"/>
<text text-anchor="middle" x="2263" y="-319.4" font-family="Times Roman,serif" font-size="14.00">User</text>
</g>
<!-- Permition -->
<g id="node49" class="node"><title>Permition</title>
<ellipse fill="none" stroke="black" cx="2166" cy="-203" rx="58.1882" ry="18.3848"/>
<text text-anchor="middle" x="2166" y="-199.4" font-family="Times Roman,serif" font-size="14.00">Permition</text>
</g>
<!-- User&#45;&gt;Permition -->
<g id="edge38" class="edge"><title>User&#45;&gt;Permition</title>
<path fill="none" stroke="#56562f" d="M2244.1,-299.613C2227.68,-279.304 2203.94,-249.935 2186.95,-228.916"/>
<ellipse fill="none" stroke="#56562f" cx="2246.79" cy="-302.951" rx="4.00002" ry="4.00002"/>
<polygon fill="#56562f" stroke="#56562f" points="2186.86,-228.805 2184.07,-218.199 2183.72,-224.917 2180.57,-221.028 2180.57,-221.028 2180.57,-221.028 2183.72,-224.917 2177.07,-223.857 2186.86,-228.805 2186.86,-228.805"/>
</g>
<!-- Role -->
<g id="node51" class="node"><title>Role</title>
<ellipse fill="none" stroke="black" cx="2274" cy="-203" rx="32.0265" ry="18.3848"/>
<text text-anchor="middle" x="2274" y="-199.4" font-family="Times Roman,serif" font-size="14.00">Role</text>
</g>
<!-- User&#45;&gt;Role -->
<g id="edge40" class="edge"><title>User&#45;&gt;Role</title>
<path fill="none" stroke="#c6f30c" d="M2265.61,-294.513C2267.35,-275.599 2269.61,-250.852 2271.35,-231.861"/>
<polygon fill="#c6f30c" stroke="#c6f30c" points="2265.61,-294.555 2260.21,-304.102 2265.15,-299.534 2264.69,-304.513 2264.69,-304.513 2264.69,-304.513 2265.15,-299.534 2269.18,-304.924 2265.61,-294.555 2265.61,-294.555"/>
<polygon fill="#c6f30c" stroke="#c6f30c" points="2271.37,-231.664 2276.77,-222.117 2271.83,-226.685 2272.29,-221.706 2272.29,-221.706 2272.29,-221.706 2271.83,-226.685 2267.8,-221.295 2271.37,-231.664 2271.37,-231.664"/>
</g>
<!-- Agency&#45;&gt;Reserva -->
<g id="edge42" class="edge"><title>Agency&#45;&gt;Reserva</title>
<path fill="none" stroke="#3ac061" d="M896.529,-180.027C881.958,-166.349 863.488,-149.009 848.705,-135.131"/>
<ellipse fill="none" stroke="#3ac061" cx="899.651" cy="-182.958" rx="4.00002" ry="4.00002"/>
<polygon fill="#3ac061" stroke="#3ac061" points="848.641,-135.071 844.43,-124.946 844.996,-131.649 841.35,-128.227 841.35,-128.227 841.35,-128.227 844.996,-131.649 838.27,-131.508 848.641,-135.071 848.641,-135.071"/>
</g>
<!-- Thabitacion -->
<g id="node17" class="node"><title>Thabitacion</title>
<ellipse fill="none" stroke="black" cx="644" cy="-203" rx="68.0887" ry="18.3848"/>
<text text-anchor="middle" x="644" y="-199.4" font-family="Times Roman,serif" font-size="14.00">Thabitacion</text>
</g>
<!-- Thabitacion&#45;&gt;Reserva -->
<g id="edge48" class="edge"><title>Thabitacion&#45;&gt;Reserva</title>
<path fill="none" stroke="#d80a5d" d="M683.305,-182.798C713.339,-167.362 754.517,-146.198 784.379,-130.85"/>
<ellipse fill="none" stroke="#d80a5d" cx="679.559" cy="-184.724" rx="4.00002" ry="4.00002"/>
<polygon fill="#d80a5d" stroke="#d80a5d" points="784.754,-130.657 795.706,-130.088 789.201,-128.371 793.648,-126.086 793.648,-126.086 793.648,-126.086 789.201,-128.371 791.591,-122.083 784.754,-130.657 784.754,-130.657"/>
</g>
<!-- Thabitacion::Version -->
<g id="node55" class="node"><title>Thabitacion::Version</title>
<ellipse fill="none" stroke="black" cx="644" cy="-111" rx="111.016" ry="18.3848"/>
<text text-anchor="middle" x="644" y="-107.4" font-family="Times Roman,serif" font-size="14.00">Thabitacion::Version</text>
</g>
<!-- Thabitacion&#45;&gt;Thabitacion::Version -->
<g id="edge46" class="edge"><title>Thabitacion&#45;&gt;Thabitacion::Version</title>
<path fill="none" stroke="#687795" d="M644,-176.029C644,-164.599 644,-151.267 644,-139.66"/>
<ellipse fill="none" stroke="#687795" cx="644" cy="-180.382" rx="4" ry="4"/>
<polygon fill="#687795" stroke="#687795" points="644,-139.59 648.5,-129.59 644,-134.59 644,-129.59 644,-129.59 644,-129.59 644,-134.59 639.5,-129.59 644,-139.59 644,-139.59"/>
<text text-anchor="middle" x="673" y="-153.4" font-family="Times Roman,serif" font-size="14.00">versions</text>
</g>
<!-- Operadora&#45;&gt;Reserva -->
<g id="edge50" class="edge"><title>Operadora&#45;&gt;Reserva</title>
<path fill="none" stroke="#b57c8c" d="M801.659,-176.447C805.443,-164.84 809.888,-151.21 813.739,-139.401"/>
<ellipse fill="none" stroke="#b57c8c" cx="800.311" cy="-180.58" rx="4.00001" ry="4.00001"/>
<polygon fill="#b57c8c" stroke="#b57c8c" points="813.838,-139.097 821.216,-130.985 815.388,-134.344 816.938,-129.59 816.938,-129.59 816.938,-129.59 815.388,-134.344 812.66,-128.195 813.838,-139.097 813.838,-139.097"/>
</g>
<!-- Movimiento&#45;&gt;Directo -->
<g id="edge18" class="edge"><title>Movimiento&#45;&gt;Directo</title>
<path fill="none" stroke="black" d="M1242.06,-184.382C1231.69,-168.211 1216.77,-144.94 1206.52,-128.964"/>
</g>
<!-- Movimiento&#45;&gt;Pago -->
<g id="edge34" class="edge"><title>Movimiento&#45;&gt;Pago</title>
<path fill="none" stroke="black" d="M1275.98,-185.261C1297.07,-168.239 1328.61,-142.787 1348.74,-126.541"/>
</g>
<!-- Movimiento&#45;&gt;Deposito -->
<g id="edge36" class="edge"><title>Movimiento&#45;&gt;Deposito</title>
<path fill="none" stroke="black" d="M1258.67,-184.225C1263.38,-160.87 1267.79,-120.591 1251,-92 1233.08,-61.4889 1197,-42.3263 1168.53,-31.3319"/>
</g>
<!-- Movimiento&#45;&gt;Movimiento -->
<g id="edge54" class="edge"><title>Movimiento&#45;&gt;Movimiento</title>
<path fill="none" stroke="#6ffcda" d="M1322.71,-210.837C1333.02,-209.625 1340,-207.012 1340,-203 1340,-199.26 1333.94,-196.737 1324.77,-195.429"/>
<ellipse fill="none" stroke="#6ffcda" cx="1318.66" cy="-211.158" rx="4" ry="4"/>
<polygon fill="#6ffcda" stroke="#6ffcda" points="1324.63,-195.417 1315.07,-190.045 1319.65,-194.972 1314.67,-194.527 1314.67,-194.527 1314.67,-194.527 1319.65,-194.972 1314.27,-199.009 1324.63,-195.417 1324.63,-195.417"/>
</g>
<!-- Cambio -->
<g id="node22" class="node"><title>Cambio</title>
<ellipse fill="none" stroke="black" cx="1082" cy="-111" rx="48.0833" ry="18.3848"/>
<text text-anchor="middle" x="1082" y="-107.4" font-family="Times Roman,serif" font-size="14.00">Cambio</text>
</g>
<!-- Movimiento&#45;&gt;Cambio -->
<g id="edge68" class="edge"><title>Movimiento&#45;&gt;Cambio</title>
<path fill="none" stroke="black" d="M1222.85,-186.339C1190.71,-169.148 1141.03,-142.574 1110.07,-126.013"/>
</g>
<!-- Reserva&#45;&gt;Viajero -->
<g id="edge60" class="edge"><title>Reserva&#45;&gt;Viajero</title>
<path fill="none" stroke="#5313e7" d="M777.851,-96.1386C773.186,-94.6995 768.505,-93.295 764,-92 681.224,-68.2068 583.907,-44.3957 526.232,-30.7122"/>
<ellipse fill="none" stroke="#5313e7" cx="781.838" cy="-97.3858" rx="4.00001" ry="4.00001"/>
<polygon fill="#5313e7" stroke="#5313e7" points="526.015,-30.661 517.319,-23.98 521.149,-29.5101 516.284,-28.3592 516.284,-28.3592 516.284,-28.3592 521.149,-29.5101 515.248,-32.7384 526.015,-30.661 526.015,-30.661"/>
</g>
<!-- Reserva&#45;&gt;Deposito -->
<g id="edge58" class="edge"><title>Reserva&#45;&gt;Deposito</title>
<path fill="none" stroke="#ce9e49" d="M869.683,-96.9185C925.893,-79.9635 1019.93,-51.5985 1077.7,-34.1713"/>
<ellipse fill="none" stroke="#ce9e49" cx="865.768" cy="-98.0995" rx="4.00001" ry="4.00001"/>
<polygon fill="#ce9e49" stroke="#ce9e49" points="1077.78,-34.1489 1088.65,-35.5692 1082.57,-32.7049 1087.35,-31.2609 1087.35,-31.2609 1087.35,-31.2609 1082.57,-32.7049 1086.05,-26.9526 1077.78,-34.1489 1077.78,-34.1489"/>
</g>
<!-- Reserva::Version -->
<g id="node61" class="node"><title>Reserva::Version</title>
<ellipse fill="none" stroke="black" cx="823" cy="-19" rx="92.1303" ry="18.3848"/>
<text text-anchor="middle" x="823" y="-15.4" font-family="Times Roman,serif" font-size="14.00">Reserva::Version</text>
</g>
<!-- Reserva&#45;&gt;Reserva::Version -->
<g id="edge56" class="edge"><title>Reserva&#45;&gt;Reserva::Version</title>
<path fill="none" stroke="#b4f346" d="M823,-84.029C823,-72.5994 823,-59.2671 823,-47.6601"/>
<ellipse fill="none" stroke="#b4f346" cx="823" cy="-88.3824" rx="4" ry="4"/>
<polygon fill="#b4f346" stroke="#b4f346" points="823,-47.5899 827.5,-37.5898 823,-42.5899 823,-37.5899 823,-37.5899 823,-37.5899 823,-42.5899 818.5,-37.5899 823,-47.5899 823,-47.5899"/>
<text text-anchor="middle" x="852" y="-61.4" font-family="Times Roman,serif" font-size="14.00">versions</text>
</g>
<!-- Monto&#45;&gt;Cuenta -->
<g id="edge66" class="edge"><title>Monto&#45;&gt;Cuenta</title>
<path fill="none" stroke="#04c1d8" d="M1479.36,-176.029C1478.24,-164.599 1476.94,-151.267 1475.8,-139.66"/>
<ellipse fill="none" stroke="#04c1d8" cx="1479.79" cy="-180.401" rx="4" ry="4"/>
<polygon fill="#04c1d8" stroke="#04c1d8" points="1475.79,-139.542 1479.3,-129.152 1475.31,-134.566 1474.82,-129.59 1474.82,-129.59 1474.82,-129.59 1475.31,-134.566 1470.34,-130.028 1475.79,-139.542 1475.79,-139.542"/>
</g>
<!-- Monto&#45;&gt;Pago -->
<g id="edge62" class="edge"><title>Monto&#45;&gt;Pago</title>
<path fill="none" stroke="#430d1d" d="M1455.16,-181.338C1437.14,-166.794 1413.47,-147.691 1395.34,-133.064"/>
<ellipse fill="none" stroke="#430d1d" cx="1458.51" cy="-184.04" rx="4.00002" ry="4.00002"/>
<polygon fill="#430d1d" stroke="#430d1d" points="1395.23,-132.971 1390.27,-123.189 1391.33,-129.831 1387.44,-126.691 1387.44,-126.691 1387.44,-126.691 1391.33,-129.831 1384.62,-130.193 1395.23,-132.971 1395.23,-132.971"/>
</g>
<!-- Monto&#45;&gt;Reserva -->
<g id="edge64" class="edge"><title>Monto&#45;&gt;Reserva</title>
<path fill="none" stroke="#5f01b9" d="M1433.87,-196.078C1408.61,-192.456 1377.14,-187.962 1349,-184 1178.56,-159.998 976.96,-132.179 880.301,-118.876"/>
<ellipse fill="none" stroke="#5f01b9" cx="1437.89" cy="-196.653" rx="4.00001" ry="4.00001"/>
<polygon fill="#5f01b9" stroke="#5f01b9" points="880.066,-118.844 870.773,-113.023 875.113,-118.162 870.159,-117.481 870.159,-117.481 870.159,-117.481 875.113,-118.162 869.546,-121.939 880.066,-118.844 880.066,-118.844"/>
</g>
<!-- Ability -->
<g id="node23" class="node"><title>Ability</title>
<polygon fill="none" stroke="black" points="2375,-341 2315,-341 2315,-305 2375,-305 2375,-341"/>
<text text-anchor="middle" x="2345" y="-319.4" font-family="Times Roman,serif" font-size="14.00">Ability</text>
</g>
</g>
</svg>
